<svg width="101" height="33" viewBox="0 0 101 33" fill="none" xmlns="http://www.w3.org/2000/svg" role="presentation">
<path d="M17.991 13.3003C19.9899 14.3249 22.2635 13.8021 23.7115 12.085C24.6463 10.9766 25.6349 9.72209 26.4033 8.72661C27.2776 7.5939 28.6218 6.91621 30.0527 6.91621C31.8981 6.91621 33.5583 8.0378 34.247 9.74984L40.7472 25.9075C40.8324 26.1191 40.5913 26.3169 40.4058 26.1842C38.4595 24.792 32.4514 20.5834 27.8852 18.3424C25.9284 17.3821 23.7205 17.843 22.3329 19.5241C21.1115 21.0039 19.7728 22.8217 18.7967 24.1851C17.9031 25.4335 16.4702 26.1908 14.9349 26.1908C13.0362 26.1908 11.3285 25.0356 10.6219 23.2733L2.08266 1.97308C1.9923 1.74768 2.27041 1.54656 2.45013 1.70987C4.78158 3.82846 12.1033 10.2823 17.991 13.3003Z" fill="#18181B"/>
<path d="M78.9628 10.0275C80.5 8.15687 82.8655 6.90155 85.6024 6.90155C90.8511 6.90175 94.9724 11.0004 94.9725 16.5373C94.9725 22.0744 90.8855 26.1525 85.6366 26.1525C82.8997 26.1525 80.5 24.9929 78.9628 23.1223V33.0002H75.5507V6.90155H78.9628V10.0275ZM65.9803 6.90155C70.7655 6.90165 73.704 9.79688 73.704 14.3088V26.1359H70.3134V23.2199C69.1077 24.9494 66.8847 26.1524 64.5487 26.1525C60.4794 26.1525 57.8789 23.972 57.8788 20.6633C57.8788 17.0537 60.9312 14.6096 66.5077 14.6096H70.2382V14.008C70.2382 11.3761 68.6178 9.75913 65.9052 9.75897C63.6069 9.75897 61.685 11.263 61.5341 13.3683H58.0673C58.2559 9.60857 61.572 6.90155 65.9803 6.90155ZM48.6962 21.633L54.4227 6.90155H58.1639L50.3798 26.1359H46.826L39.0028 6.90155H42.6307L48.6962 21.633ZM100.226 26.1359H96.7772V6.90155H100.226V26.1359ZM66.621 17.2043C63.1545 17.2043 61.2704 18.3697 61.2704 20.5881C61.2705 22.28 62.5517 23.4455 64.8124 23.4455C67.9396 23.4453 70.3134 20.926 70.3134 17.7678V17.2043H66.621ZM85.2987 10.2892C81.7371 10.2894 78.9628 12.8713 78.9628 16.6125C78.9628 20.2414 81.7372 22.8975 85.2987 22.8976C88.7854 22.8976 91.5603 20.1293 91.5604 16.6125C91.5604 12.9834 88.7855 10.2892 85.2987 10.2892ZM100.226 5.091H96.7772V1.6496H100.226V5.091Z" fill="#18181B"/>
</svg>